<svg class="main-svg" xmlns="http://www.w3.org/2000/svg" xmlns:xlink="http://www.w3.org/1999/xlink" width="1000" height="600" style="" viewBox="0 0 1000 600"><rect x="0" y="0" width="1000" height="600" style="fill: rgb(255, 255, 255); fill-opacity: 1;"/><defs id="defs-684007"><g class="clips"><clipPath id="clip684007xyplot" class="plotclip"><rect width="702" height="374"/></clipPath><clipPath class="axesclip" id="clip684007x"><rect x="66" y="0" width="702" height="600"/></clipPath><clipPath class="axesclip" id="clip684007y"><rect x="0" y="30" width="1000" height="374"/></clipPath><clipPath class="axesclip" id="clip684007xy"><rect x="66" y="30" width="702" height="374"/></clipPath></g><g class="gradients"><linearGradient x1="0" y1="1" x2="0" y2="0" gradientUnits="objectBoundingBox" id="g684007-cbcoloraxis"><stop offset="0%" stop-color="rgb(13, 8, 135)" stop-opacity="1"/><stop offset="11.111111%" stop-color="rgb(70, 3, 159)" stop-opacity="1"/><stop offset="22.222222%" stop-color="rgb(114, 1, 168)" stop-opacity="1"/><stop offset="33.333333%" stop-color="rgb(156, 23, 158)" stop-opacity="1"/><stop offset="44.444444%" stop-color="rgb(189, 55, 134)" stop-opacity="1"/><stop offset="55.555556%" stop-color="rgb(216, 87, 107)" stop-opacity="1"/><stop offset="66.666667%" stop-color="rgb(237, 121, 83)" stop-opacity="1"/><stop offset="77.777778%" stop-color="rgb(251, 159, 58)" stop-opacity="1"/><stop offset="88.888889%" stop-color="rgb(253, 202, 38)" stop-opacity="1"/><stop offset="100%" stop-color="rgb(240, 249, 33)" stop-opacity="1"/></linearGradient></g><g class="patterns"/></defs><g class="bglayer"/><g class="layer-below"><g class="imagelayer"/><g class="shapelayer"/></g><g class="cartesianlayer"><g class="subplot xy"><g class="layer-subplot"><g class="shapelayer"/><g class="imagelayer"/></g><g class="minor-gridlayer"><g class="x"/><g class="y"/></g><g class="gridlayer"><g class="x"><path class="xgrid crisp" transform="translate(148.53,0)" d="M0,30v374" style="stroke: rgb(255, 255, 255); stroke-opacity: 1; stroke-width: 1px;"/><path class="xgrid crisp" transform="translate(212.24,0)" d="M0,30v374" style="stroke: rgb(255, 255, 255); stroke-opacity: 1; stroke-width: 1px;"/><path class="xgrid crisp" transform="translate(275.95,0)" d="M0,30v374" style="stroke: rgb(255, 255, 255); stroke-opacity: 1; stroke-width: 1px;"/><path class="xgrid crisp" transform="translate(339.65,0)" d="M0,30v374" style="stroke: rgb(255, 255, 255); stroke-opacity: 1; stroke-width: 1px;"/><path class="xgrid crisp" transform="translate(403.36,0)" d="M0,30v374" style="stroke: rgb(255, 255, 255); stroke-opacity: 1; stroke-width: 1px;"/><path class="xgrid crisp" transform="translate(467.06,0)" d="M0,30v374" style="stroke: rgb(255, 255, 255); stroke-opacity: 1; stroke-width: 1px;"/><path class="xgrid crisp" transform="translate(530.77,0)" d="M0,30v374" style="stroke: rgb(255, 255, 255); stroke-opacity: 1; stroke-width: 1px;"/><path class="xgrid crisp" transform="translate(594.48,0)" d="M0,30v374" style="stroke: rgb(255, 255, 255); stroke-opacity: 1; stroke-width: 1px;"/><path class="xgrid crisp" transform="translate(658.18,0)" d="M0,30v374" style="stroke: rgb(255, 255, 255); stroke-opacity: 1; stroke-width: 1px;"/><path class="xgrid crisp" transform="translate(721.89,0)" d="M0,30v374" style="stroke: rgb(255, 255, 255); stroke-opacity: 1; stroke-width: 1px;"/></g><g class="y"><path class="ygrid crisp" transform="translate(0,401.54)" d="M66,0h702" style="stroke: rgb(255, 255, 255); stroke-opacity: 1; stroke-width: 1px;"/><path class="ygrid crisp" transform="translate(0,348.62)" d="M66,0h702" style="stroke: rgb(255, 255, 255); stroke-opacity: 1; stroke-width: 1px;"/><path class="ygrid crisp" transform="translate(0,295.7)" d="M66,0h702" style="stroke: rgb(255, 255, 255); stroke-opacity: 1; stroke-width: 1px;"/><path class="ygrid crisp" transform="translate(0,242.78)" d="M66,0h702" style="stroke: rgb(255, 255, 255); stroke-opacity: 1; stroke-width: 1px;"/><path class="ygrid crisp" transform="translate(0,189.86)" d="M66,0h702" style="stroke: rgb(255, 255, 255); stroke-opacity: 1; stroke-width: 1px;"/><path class="ygrid crisp" transform="translate(0,136.94)" d="M66,0h702" style="stroke: rgb(255, 255, 255); stroke-opacity: 1; stroke-width: 1px;"/><path class="ygrid crisp" transform="translate(0,84.02000000000001)" d="M66,0h702" style="stroke: rgb(255, 255, 255); stroke-opacity: 1; stroke-width: 1px;"/><path class="ygrid crisp" transform="translate(0,31.1)" d="M66,0h702" style="stroke: rgb(255, 255, 255); stroke-opacity: 1; stroke-width: 1px;"/></g></g><g class="zerolinelayer"/><g class="layer-between"><g class="shapelayer"/><g class="imagelayer"/></g><path class="xlines-below"/><path class="ylines-below"/><g class="overlines-below"/><g class="xaxislayer-below"/><g class="yaxislayer-below"/><g class="overaxes-below"/><g class="overplot"><g class="xy" transform="translate(66,30)" clip-path="url(#clip684007xyplot)"><g class="scatterlayer mlayer"><g class="trace scatter trace711056" style="stroke-miterlimit: 2; opacity: 1;"><g class="fills"/><g class="errorbars"/><g class="lines"/><g class="points"><path class="point" transform="translate(82.53,292.16)" d="M42.43,0A42.43,42.43 0 1,1 0,-42.43A42.43,42.43 0 0,1 42.43,0Z" style="opacity: 0.7; stroke-width: 1px; fill: rgb(240, 249, 33); fill-opacity: 1; stroke: rgb(255, 255, 255); stroke-opacity: 1;"/><path class="point" transform="translate(146.24,265.94)" d="M20.84,0A20.84,20.84 0 1,1 0,-20.84A20.84,20.84 0 0,1 20.84,0Z" style="opacity: 0.7; stroke-width: 1px; fill: rgb(104, 1, 166); fill-opacity: 1; stroke: rgb(255, 255, 255); stroke-opacity: 1;"/><path class="point" transform="translate(209.95,119.93)" d="M20.47,0A20.47,20.47 0 1,1 0,-20.47A20.47,20.47 0 0,1 20.47,0Z" style="opacity: 0.7; stroke-width: 1px; fill: rgb(101, 2, 165); fill-opacity: 1; stroke: rgb(255, 255, 255); stroke-opacity: 1;"/><path class="point" transform="translate(273.65,132.08)" d="M14.78,0A14.78,14.78 0 1,1 0,-14.78A14.78,14.78 0 0,1 14.78,0Z" style="opacity: 0.7; stroke-width: 1px; fill: rgb(50, 5, 150); fill-opacity: 1; stroke: rgb(255, 255, 255); stroke-opacity: 1;"/><path class="point" transform="translate(337.36,171.64)" d="M11.83,0A11.83,11.83 0 1,1 0,-11.83A11.83,11.83 0 0,1 11.83,0Z" style="opacity: 0.7; stroke-width: 1px; fill: rgb(26, 7, 140); fill-opacity: 1; stroke: rgb(255, 255, 255); stroke-opacity: 1;"/><path class="point" transform="translate(401.06,226.81)" d="M11.47,0A11.47,11.47 0 1,1 0,-11.47A11.47,11.47 0 0,1 11.47,0Z" style="opacity: 0.7; stroke-width: 1px; fill: rgb(23, 7, 139); fill-opacity: 1; stroke: rgb(255, 255, 255); stroke-opacity: 1;"/><path class="point" transform="translate(464.77,30.56)" d="M10.61,0A10.61,10.61 0 1,1 0,-10.61A10.61,10.61 0 0,1 10.61,0Z" style="opacity: 0.7; stroke-width: 1px; fill: rgb(18, 8, 137); fill-opacity: 1; stroke: rgb(255, 255, 255); stroke-opacity: 1;"/><path class="point" transform="translate(528.48,229.93)" d="M10.11,0A10.11,10.11 0 1,1 0,-10.11A10.11,10.11 0 0,1 10.11,0Z" style="opacity: 0.7; stroke-width: 1px; fill: rgb(15, 8, 136); fill-opacity: 1; stroke: rgb(255, 255, 255); stroke-opacity: 1;"/><path class="point" transform="translate(592.18,260.74)" d="M9.89,0A9.89,9.89 0 1,1 0,-9.89A9.89,9.89 0 0,1 9.89,0Z" style="opacity: 0.7; stroke-width: 1px; fill: rgb(13, 8, 135); fill-opacity: 1; stroke: rgb(255, 255, 255); stroke-opacity: 1;"/><path class="point" transform="translate(655.89,344.29)" d="M9.85,0A9.85,9.85 0 1,1 0,-9.85A9.85,9.85 0 0,1 9.85,0Z" style="opacity: 0.7; stroke-width: 1px; fill: rgb(13, 8, 135); fill-opacity: 1; stroke: rgb(255, 255, 255); stroke-opacity: 1;"/></g><g class="text"/></g></g></g></g><g class="zerolinelayer-above"/><path class="xlines-above crisp" d="M65,404.5H768" style="fill: none; stroke-width: 1px; stroke: rgb(0, 0, 0); stroke-opacity: 1;"/><path class="ylines-above crisp" d="M65.5,30V404" style="fill: none; stroke-width: 1px; stroke: rgb(0, 0, 0); stroke-opacity: 1;"/><g class="overlines-above"/><g class="xaxislayer-above"><g class="xtick"><text text-anchor="end" x="0" y="421.8" transform="translate(148.53,0) rotate(-45,0,414.8)" style="font-family: Arial; font-size: 14px; fill: rgb(42, 63, 95); fill-opacity: 1; white-space: pre;">Data Analysts</text></g><g class="xtick"><text text-anchor="end" x="0" y="421.8" transform="translate(212.24,0) rotate(-45,0,414.8)" style="font-family: Arial; font-size: 14px; fill: rgb(42, 63, 95); fill-opacity: 1; white-space: pre;">Business Intelligence Analysts</text></g><g class="xtick"><text text-anchor="end" x="0" y="421.8" transform="translate(275.95,0) rotate(-45,0,414.8)" style="font-family: Arial; font-size: 14px; fill: rgb(42, 63, 95); fill-opacity: 1; white-space: pre;">Enterprise Architects</text></g><g class="xtick"><text text-anchor="end" x="0" y="421.8" transform="translate(339.65,0) rotate(-45,0,414.8)" style="font-family: Arial; font-size: 14px; fill: rgb(42, 63, 95); fill-opacity: 1; white-space: pre;">Oracle Cloud HCM Consultants</text></g><g class="xtick"><text text-anchor="end" x="0" y="421.8" transform="translate(403.36,0) rotate(-45,0,414.8)" style="font-family: Arial; font-size: 14px; fill: rgb(42, 63, 95); fill-opacity: 1; white-space: pre;">Data Modelers</text></g><g class="xtick"><text text-anchor="end" x="0" y="421.8" transform="translate(467.06,0) rotate(-45,0,414.8)" style="font-family: Arial; font-size: 14px; fill: rgb(42, 63, 95); fill-opacity: 1; white-space: pre;">Data Governance Analysts</text></g><g class="xtick"><text text-anchor="end" x="0" y="421.8" transform="translate(530.77,0) rotate(-45,0,414.8)" style="font-family: Arial; font-size: 14px; fill: rgb(42, 63, 95); fill-opacity: 1; white-space: pre;">Data Analytics Engineers</text></g><g class="xtick"><text text-anchor="end" x="0" y="421.8" transform="translate(594.48,0) rotate(-45,0,414.8)" style="font-family: Arial; font-size: 14px; fill: rgb(42, 63, 95); fill-opacity: 1; white-space: pre;">ERP Business Analysts</text></g><g class="xtick"><text text-anchor="end" x="0" y="421.8" transform="translate(658.18,0) rotate(-45,0,414.8)" style="font-family: Arial; font-size: 14px; fill: rgb(42, 63, 95); fill-opacity: 1; white-space: pre;">Data Quality Analysts</text></g><g class="xtick"><text text-anchor="end" x="0" y="421.8" transform="translate(721.89,0) rotate(-45,0,414.8)" style="font-family: Arial; font-size: 14px; fill: rgb(42, 63, 95); fill-opacity: 1; white-space: pre;">Data and Reporting Analysts</text></g></g><g class="yaxislayer-above"><g class="ytick"><text text-anchor="end" x="62.2" y="4.8999999999999995" transform="translate(0,401.54)" style="font-family: Arial; font-size: 14px; fill: rgb(42, 63, 95); fill-opacity: 1; white-space: pre;">60k</text></g><g class="ytick"><text text-anchor="end" x="62.2" y="4.8999999999999995" style="font-family: Arial; font-size: 14px; fill: rgb(42, 63, 95); fill-opacity: 1; white-space: pre;" transform="translate(0,348.62)">80k</text></g><g class="ytick"><text text-anchor="end" x="62.2" y="4.8999999999999995" style="font-family: Arial; font-size: 14px; fill: rgb(42, 63, 95); fill-opacity: 1; white-space: pre;" transform="translate(0,295.7)">100k</text></g><g class="ytick"><text text-anchor="end" x="62.2" y="4.8999999999999995" style="font-family: Arial; font-size: 14px; fill: rgb(42, 63, 95); fill-opacity: 1; white-space: pre;" transform="translate(0,242.78)">120k</text></g><g class="ytick"><text text-anchor="end" x="62.2" y="4.8999999999999995" style="font-family: Arial; font-size: 14px; fill: rgb(42, 63, 95); fill-opacity: 1; white-space: pre;" transform="translate(0,189.86)">140k</text></g><g class="ytick"><text text-anchor="end" x="62.2" y="4.8999999999999995" style="font-family: Arial; font-size: 14px; fill: rgb(42, 63, 95); fill-opacity: 1; white-space: pre;" transform="translate(0,136.94)">160k</text></g><g class="ytick"><text text-anchor="end" x="62.2" y="4.8999999999999995" style="font-family: Arial; font-size: 14px; fill: rgb(42, 63, 95); fill-opacity: 1; white-space: pre;" transform="translate(0,84.02000000000001)">180k</text></g><g class="ytick"><text text-anchor="end" x="62.2" y="4.8999999999999995" style="font-family: Arial; font-size: 14px; fill: rgb(42, 63, 95); fill-opacity: 1; white-space: pre;" transform="translate(0,31.1)">200k</text></g></g><g class="overaxes-above"/></g></g><g class="polarlayer"/><g class="smithlayer"/><g class="ternarylayer"/><g class="geolayer"/><g class="funnelarealayer"/><g class="pielayer"/><g class="iciclelayer"/><g class="treemaplayer"/><g class="sunburstlayer"/><g class="glimages"/><defs id="topdefs-684007"><g class="clips"/></defs><g class="layer-above"><g class="imagelayer"/><g class="shapelayer"/></g><g class="infolayer"><g class="cbcoloraxis colorbar" transform="translate(66,30)"><rect class="cbbg" x="716" y="0" width="217.990234375" height="374" style="fill: rgb(0, 0, 0); fill-opacity: 0; stroke: rgb(68, 68, 68); stroke-opacity: 1; stroke-width: 0;"/><g class="cbfills" transform="translate(0,35)"><rect class="cbfill gradient_filled" style="fill: url('#g684007-cbcoloraxis');" x="726" y="0" width="30" height="329"/></g><g class="cblines" transform="translate(0,35)"/><g class="cbaxis crisp" transform="translate(0,-30)"><g class="ycbcoloraxistick"><text text-anchor="start" x="759.3" y="4.8999999999999995" transform="translate(0,372.26)" style="font-family: Arial; font-size: 14px; fill: rgb(42, 63, 95); fill-opacity: 1; white-space: pre;">1000</text></g><g class="ycbcoloraxistick"><text text-anchor="start" x="759.3" y="4.8999999999999995" style="font-family: Arial; font-size: 14px; fill: rgb(42, 63, 95); fill-opacity: 1; white-space: pre;" transform="translate(0,331.79)">2000</text></g><g class="ycbcoloraxistick"><text text-anchor="start" x="759.3" y="4.8999999999999995" style="font-family: Arial; font-size: 14px; fill: rgb(42, 63, 95); fill-opacity: 1; white-space: pre;" transform="translate(0,291.31)">3000</text></g><g class="ycbcoloraxistick"><text text-anchor="start" x="759.3" y="4.8999999999999995" style="font-family: Arial; font-size: 14px; fill: rgb(42, 63, 95); fill-opacity: 1; white-space: pre;" transform="translate(0,250.83000000000004)">4000</text></g><g class="ycbcoloraxistick"><text text-anchor="start" x="759.3" y="4.8999999999999995" style="font-family: Arial; font-size: 14px; fill: rgb(42, 63, 95); fill-opacity: 1; white-space: pre;" transform="translate(0,210.35000000000002)">5000</text></g><g class="ycbcoloraxistick"><text text-anchor="start" x="759.3" y="4.8999999999999995" style="font-family: Arial; font-size: 14px; fill: rgb(42, 63, 95); fill-opacity: 1; white-space: pre;" transform="translate(0,169.88)">6000</text></g><g class="ycbcoloraxistick"><text text-anchor="start" x="759.3" y="4.8999999999999995" style="font-family: Arial; font-size: 14px; fill: rgb(42, 63, 95); fill-opacity: 1; white-space: pre;" transform="translate(0,129.40000000000003)">7000</text></g><g class="ycbcoloraxistick"><text text-anchor="start" x="759.3" y="4.8999999999999995" style="font-family: Arial; font-size: 14px; fill: rgb(42, 63, 95); fill-opacity: 1; white-space: pre;" transform="translate(0,88.92000000000002)">8000</text></g></g><g class="cbtitleunshift" transform="translate(-66,-30)"><g class="cbtitle" transform=""><text class="ycbcoloraxistitle" x="792.04" y="55.75" text-anchor="start" style="opacity: 1; font-family: Arial; font-size: 17px; fill: rgb(42, 63, 95); fill-opacity: 1; white-space: pre;">Number of Job Postings</text></g></g><rect class="cboutline" x="726" y="35" width="30" height="329" style="stroke: rgb(68, 68, 68); stroke-opacity: 1; fill: none; stroke-width: 0;"/></g><g class="g-gtitle"><text class="gtitle" x="50" y="15" text-anchor="start" dy="0em" style="opacity: 1; font-family: Arial; font-size: 25px; fill: rgb(42, 63, 95); fill-opacity: 1; white-space: pre;">Salary Analysis by ONET Occupation Type (Bubble Chart)</text></g><g class="g-xtitle" transform="translate(0,-3.7906249999999773)"><text class="xtitle" x="417" y="599.790625" text-anchor="middle" style="opacity: 1; font-family: Arial; font-size: 17px; fill: rgb(42, 63, 95); fill-opacity: 1; white-space: pre;">ONET Occupation</text></g><g class="g-ytitle" transform="translate(9.09375,0)"><text class="ytitle" transform="rotate(-90,6.906445312499997,217)" x="6.906445312499997" y="217" text-anchor="middle" style="opacity: 1; font-family: Arial; font-size: 17px; fill: rgb(42, 63, 95); fill-opacity: 1; white-space: pre;">Median Salary</text></g></g></svg>